<?xml version="1.0" encoding="UTF-8" standalone="no"?>
<svg xmlns:sketch="http://www.bohemiancoding.com/sketch/ns" xmlns="http://www.w3.org/2000/svg" xmlns:xlink="http://www.w3.org/1999/xlink" height="400px" width="550px" version="1.1" viewBox="0 0 44 30"><script/><!-- Generator: Sketch 3.2.2 (9983) - http://www.bohemiancoding.com/sketch -->
 <title>Imported Layers</title>
 <desc>Created with Sketch.</desc>
 <g id="Page-1" fill-rule="evenodd" sketch:type="MSPage" fill="none">
  <g id="Pricing-Spec" transform="translate(-236 -556)" sketch:type="MSArtboardGroup">
   <g id="Pricing-Module" transform="translate(145 284)" sketch:type="MSLayerGroup">
    <g id="Column-1" sketch:type="MSShapeGroup" transform="translate(91 178)">
     <g id="Imported-Layers" transform="translate(0 94)">
      <path id="Fill-1" fill="#DCDEE4" d="m43.484 25.148c0 0.553-5.861 1-13.092 1-7.23 0-13.091-0.447-13.091-1 0-0.552 5.861-1 13.091-1 7.231 0 13.092 0.448 13.092 1"/>
      <path id="Fill-2" fill="#DCDEE4" d="m27.042 28.565c0 0.552-6.015 1-13.435 1-7.419 0-13.434-0.448-13.434-1 0-0.553 6.015-1 13.434-1 7.42 0 13.435 0.447 13.435 1"/>
      <path id="Fill-3" fill="#fff" d="m22.883 12.35v-3.975c0-4.147 3.362-7.509 7.509-7.509 4.148 0 7.51 3.362 7.51 7.509v3.975h-3.534v-3.907c0-2.233-1.78-4.044-3.976-4.044-2.195 0-3.975 1.811-3.975 4.044v3.907h-3.534"/>
      <path id="Fill-4" fill="#8C8C8C" d="m34.306 12.314c0.183-0.219 0.279-0.76 0.329-1.376 0.075-0.812 0.05-1.768 0.062-2.148 0.145-1.81-0.773-3.48-2.425-4.374-0.832-0.456-1.854-0.597-2.813-0.407-0.958 0.2-1.839 0.733-2.439 1.462-0.622 0.692-1.061 1.937-1.008 2.844 0.013 0.422 0.048 1.641 0.072 2.435 0.003 0.349 0.006 0.589 0.008 0.767 0 0.95 0.702 1.301 0.702-0.106v-0.661c0.01-0.91-0.023-2.769 0.065-2.909 0.186-0.914 0.62-1.659 1.235-2.206 0.616-0.536 1.442-0.876 2.361-0.795 0.904 0.076 1.77 0.46 2.408 1.108 0.639 0.64 1.031 1.543 1.003 2.447 0.003 0.073 0.009 1.468 0.097 2.543 0.064 0.885 0.17 1.583 0.343 1.376" style="
    color: #4E4D45;
"/>
      <path id="Fill-5" fill="#FFEB78" d="m40.435 24.718h-20.085c-0.553 0-1.001-0.448-1.001-0.999v-12.135c0-0.553 0.448-1 1.001-1h20.085c0.553 0 1 0.447 1 1v12.135c0 0.551-0.447 0.999-1 0.999" style="
    color: #FFF;
"/>
      <path id="Fill-6" fill="#8C8C8C" d="m37.838 8.339c0.169-0.216 0.263-0.779 0.19-1.417-0.316-2.066-1.704-4.083-3.407-5.137-1.695-1.101-3.496-1.271-4.453-1.244-2.241 0.038-4.295 1.141-5.636 2.727-1.365 1.58-2.052 3.654-2.012 5.67l-0.002 1.097c0.004 0.139-0.022 0.416 0.063 0.567 0.081 0.177 0.26 0.308 0.447 0.335 0.097 0.02 0.207 0.011 0.312 0.013l0.202 0.001 0.734 0.001c0.98 0.003 1.965 0.006 2.96 0.009 1.991 0.012 4.023 0.026 6.139 0.039 2.106 0.016 4.234 0.032 6.371 0.048 1.323-0.089 1.224 0.164 1.209 1.486l-0.011 3.215c-0.003 2.142-0.006 4.28-0.009 6.401v1.578c-0.003 0.27-0.233 0.504-0.528 0.492-1.051 0.001-2.095 0.003-3.132 0.005-4.053 0.024-9.618 0.058-13.659 0.083-0.665 0.005-1.735 0.013-3.021 0.023l-0.244 0.001-0.152-0.018c-0.1-0.022-0.195-0.073-0.274-0.146-0.08-0.072-0.139-0.168-0.172-0.273l-0.027-0.165-0.003-0.265c-0.004-0.728-0.009-1.486-0.014-2.252-0.013-2.053-0.026-4.182-0.034-5.378 0-0.95-0.702-1.302-0.702 0.105 0 1.321-0.002 4.428-0.003 7.331 0.014 0.237-0.035 0.451 0.048 0.805 0.084 0.314 0.28 0.593 0.543 0.774 0.248 0.185 0.615 0.265 0.866 0.249h0.668c0.877 0.001 1.697 0.002 2.418 0.003 1.442 0.002 2.49 0.004 2.819 0.005 5.101-0.001 9.598-0.002 14.085-0.003 0.374 0.008 0.775-0.159 1.032-0.446 0.267-0.267 0.394-0.721 0.367-1.035-0.001-0.561-0.002-1.124-0.002-1.689 0-1.13 0.001-2.268 0.002-3.425 0.005-1.156 0.011-2.331 0.017-3.532 0.005-0.601 0.011-1.209 0.016-1.825 0.004-0.307 0.007-0.617 0.011-0.929-0.02-0.33 0.063-0.563-0.054-1.068-0.131-0.435-0.476-0.797-0.911-0.944-0.503-0.141-0.758-0.057-1.082-0.086l-1.895-0.017c-1.265-0.006-2.532-0.013-3.801-0.019-2.539-0.001-5.085-0.001-7.632-0.002l-1.909 0.004-0.955 0.001-0.242 0.001-0.006-0.006-0.002-0.782c0-0.317-0.006-0.643 0.014-0.932 0.007-0.599 0.133-1.187 0.277-1.765 0.658-2.292 2.458-4.258 4.719-4.928 0.093-0.032 0.543-0.186 1.268-0.269 0.719-0.089 1.738-0.08 2.822 0.26 1.082 0.33 2.233 0.979 3.12 1.951 0.909 0.946 1.521 2.198 1.776 3.424 0.225 0.808 0.282 1.496 0.471 1.293"/>
      <path id="Fill-7" fill="#9EBFDE" d="m28.477 13.742c-0.353 0-0.703 0.002-1.048 0.005-0.711 0.019-1.687 0.044-2.397 0.062-0.364 0.01-1.415 0.04-2.098 0.058-0.262 0.003-0.442 0.005-0.576 0.006-0.712 0-0.976 0.526 0.08 0.526 0.097 0.001 0.238 0.001 0.496 0.001 0.787 0.002 2.382 0.008 2.574 0.009 0.346 0.009 0.675 0.012 0.995 0.012 0.39 0 0.766-0.005 1.138-0.01 0.375-0.005 0.747-0.01 1.126-0.01 0.533 0 1.081 0.01 1.675 0.044 0.659 0.037 1.325 0.048 1.992 0.048 0.378 0 0.757-0.004 1.135-0.007 0.375-0.003 0.751-0.006 1.125-0.006 0.365 0 0.729 0.002 1.091 0.011 0.007 0.001 0.02 0.001 0.041 0.001 0.229 0 1.31-0.011 2.166-0.071 0.664-0.048 1.188-0.127 1.032-0.257-0.164-0.138-0.569-0.21-1.032-0.247-0.702-0.056-1.53-0.038-1.859-0.047-1.494-0.04-2.743-0.005-4.229-0.065-1.128-0.045-2.292-0.063-3.427-0.063"/>
      <path id="Fill-8" fill="#9EBFDE" d="m28.475 16.392c-0.352 0-0.702 0.002-1.046 0.005-0.711 0.019-1.687 0.044-2.397 0.063-0.364 0.01-1.415 0.039-2.098 0.058-0.262 0.002-0.442 0.004-0.576 0.005-0.712 0-0.976 0.527 0.08 0.527h0.496c0.787 0.003 2.382 0.009 2.574 0.009 0.338 0.009 0.661 0.012 0.974 0.012 0.397 0 0.779-0.005 1.157-0.01 0.377-0.005 0.75-0.01 1.131-0.01 0.533 0 1.08 0.01 1.672 0.043 0.665 0.039 1.337 0.049 2.01 0.049 0.374 0 0.747-0.003 1.121-0.006 0.37-0.003 0.74-0.007 1.109-0.007s0.737 0.004 1.103 0.012h0.038c0.225 0 1.31-0.011 2.169-0.071 0.664-0.048 1.188-0.127 1.032-0.257-0.164-0.138-0.569-0.21-1.032-0.247-0.702-0.056-1.53-0.037-1.859-0.047-1.494-0.041-2.743-0.005-4.229-0.065-1.129-0.045-2.294-0.063-3.429-0.063"/>
      <path id="Fill-9" fill="#9EBFDE" d="m28.477 19.043c-0.353 0-0.703 0.002-1.048 0.005-0.711 0.018-1.687 0.044-2.397 0.062-0.364 0.01-1.415 0.039-2.098 0.058-0.262 0.002-0.442 0.005-0.576 0.006-0.712 0-0.976 0.526 0.08 0.526 0.097 0 0.238 0.001 0.496 0.001 0.787 0.002 2.382 0.008 2.574 0.008 0.346 0.009 0.675 0.012 0.995 0.012 0.39 0 0.766-0.004 1.138-0.009 0.375-0.006 0.747-0.01 1.126-0.01 0.533 0 1.081 0.01 1.675 0.043 0.659 0.038 1.325 0.048 1.992 0.048 0.378 0 0.757-0.003 1.135-0.006 0.375-0.004 0.751-0.007 1.125-0.007 0.365 0 0.729 0.003 1.091 0.012h0.041c0.229 0 1.31-0.011 2.166-0.071 0.664-0.047 1.188-0.127 1.032-0.257-0.164-0.137-0.569-0.209-1.032-0.247-0.702-0.055-1.53-0.037-1.859-0.046-1.494-0.041-2.743-0.006-4.229-0.066-1.128-0.044-2.292-0.062-3.427-0.062"/>
      <path id="Fill-10" fill="#9EBFDE" d="m28.475 21.693c-0.352 0-0.702 0.002-1.046 0.005-0.711 0.018-1.687 0.044-2.397 0.062-0.364 0.01-1.415 0.039-2.098 0.058-0.262 0.003-0.442 0.005-0.576 0.006-0.712 0-0.976 0.526 0.08 0.526h0.496c0.787 0.004 2.382 0.008 2.574 0.009 0.346 0.009 0.675 0.013 0.995 0.013 0.39 0 0.766-0.005 1.138-0.01 0.375-0.005 0.747-0.011 1.126-0.011 0.533 0 1.081 0.01 1.675 0.044 0.659 0.038 1.325 0.048 1.992 0.048 0.378 0 0.757-0.003 1.135-0.006 0.375-0.004 0.751-0.007 1.125-0.007 0.365 0 0.729 0.003 1.091 0.012h0.041c0.23 0 1.31-0.011 2.166-0.07 0.664-0.048 1.188-0.127 1.032-0.258-0.164-0.137-0.569-0.209-1.032-0.247-0.702-0.055-1.53-0.037-1.859-0.046-1.494-0.041-2.743-0.006-4.229-0.065-1.129-0.045-2.294-0.063-3.429-0.063"/>
      
      
      <path id="Fill-13" fill="#fff" d="m6.098 15.767v-3.976c0-4.147 3.362-7.509 7.509-7.509 4.148 0 7.51 3.362 7.51 7.509v3.976h-3.534v-3.908c0-2.233-1.78-4.043-3.976-4.043-2.195 0-3.975 1.81-3.975 4.043v3.908h-3.534"/>
      <path id="Fill-14" fill="#fff" d="m23.65 28.135h-20.085c-0.553 0-1-0.448-1-1v-12.135c0-0.552 0.447-1 1-1h20.085c0.553 0 1 0.448 1 1v12.135c0 0.552-0.447 1-1 1"/>
      <path id="Fill-15" fill="#8C8C8C" d="m21.055 14.122c0.183-0.219 0.279-0.759 0.329-1.375 0.042-0.584 0.055-1.237 0.002-1.832-0.064-0.587-0.195-1.078-0.267-1.357-0.748-2.515-2.474-4.284-4.907-5.245-2.452-0.983-5.531-0.478-7.55 1.194-1.02 0.77-2.066 2.234-2.44 3.441-0.108 0.303-0.302 0.903-0.387 1.593-0.115 0.69-0.073 1.457-0.07 2.018 0.004 0.349 0.006 0.588 0.008 0.767 0 0.95 0.702 1.302 0.702-0.106v-0.661c-0.007-0.68 0-1.623 0.208-2.433 0.181-0.815 0.526-1.449 0.594-1.583 0.689-1.246 1.583-2.187 2.653-2.844 1.058-0.67 2.325-1.036 3.733-0.978 1.399 0.082 2.774 0.512 3.935 1.308 1.152 0.795 2.086 1.939 2.547 3.25 0.023 0.055 0.209 0.519 0.355 1.173 0.152 0.651 0.17 1.491 0.211 2.295 0.064 0.885 0.17 1.583 0.344 1.375"/>
      <path id="Fill-16" fill="#8C8C8C" d="m7.062 14.062c-0.219-0.184-0.759-0.279-1.375-0.33-0.473-0.007-0.956-0.015-1.443-0.023l-0.748-0.006c-0.317 0.012-0.631 0.149-0.856 0.374-0.228 0.223-0.368 0.535-0.384 0.852-0.003 0.247-0.005 0.494-0.008 0.737-0.002 0.477-0.003 0.944-0.005 1.396-0.003 1.806-0.006 3.361-0.008 4.244-0.008 2.008-0.017 3.934-0.025 5.818-0.019 0.64 0.483 1.249 1.119 1.347l0.236 0.022h0.174l0.349 0.001 0.696 0.001c0.926 0.001 1.847 0.002 2.768 0.003 3.682 0.017 7.359 0.035 11.353 0.053 0.994 0.009 1.993 0.018 2.995 0.027l1.506 0.011c0.196 0.01 0.65 0.013 0.958-0.182 0.322-0.178 0.572-0.481 0.684-0.835 0.058-0.161 0.072-0.397 0.069-0.512l0.006-1.136 0.007-1.516 0.011-3.033c0.003-2.022 0.006-4.04 0.009-6.042l-0.002-0.396c-0.008-0.186-0.051-0.373-0.127-0.544-0.151-0.344-0.434-0.624-0.779-0.771-0.172-0.074-0.359-0.115-0.544-0.12l-0.389-0.001h-0.744c-0.991 0.002-1.977 0.004-2.956 0.006-1.912 0.009-4.181 0.02-6.449 0.031-1.037 0.009-2.074 0.017-3.069 0.025l-0.025-0.028-0.003-0.17c-0.003-0.266-0.005-0.528-0.007-0.786 0.002-0.533-0.033-1.002 0.053-1.411 0.094-0.543 0.407-1.469 1.272-2.172 0.828-0.712 2.23-1.069 3.475-0.59 1.251 0.438 2.175 1.653 2.34 2.857l0.03 0.183 0.01 0.103 0.013 0.194c0.011 0.119 0.008 0.246 0.009 0.344 0 0.95 0.701 1.302 0.701-0.105 0.003-0.093-0.004-0.237-0.013-0.405-0.005-0.084-0.006-0.174-0.023-0.269l-0.029-0.19c-0.012-0.102-0.034-0.205-0.062-0.307-0.045-0.207-0.116-0.411-0.194-0.618-0.328-0.816-0.937-1.604-1.776-2.111-0.827-0.524-1.866-0.74-2.841-0.601-0.984 0.119-1.871 0.624-2.506 1.263-0.634 0.652-1.009 1.445-1.164 2.172-0.078 0.361-0.101 0.718-0.103 1.02-0.001 0.289-0.001 0.549-0.002 0.777-0.001 0.514-0.002 0.879-0.002 1.053l-0.003 0.602 0.177 0.023 0.76 0.003c0.297 0.001 0.591 0.003 0.884 0.004 0.585 0.002 1.162 0.003 1.732 0.005 1.141 0 2.256 0.001 3.352 0.001 2.192-0.007 4.311-0.013 6.429-0.019l0.794-0.002c0.306-0.003 0.436-0.01 0.585 0.078 0.143 0.08 0.253 0.22 0.295 0.379 0.039 0.115 0.016 0.444 0.023 0.697-0.001 1.066-0.002 2.141-0.002 3.232-0.018 2.183-0.037 4.434-0.056 6.822l-0.012 0.892-0.005 0.446-0.004 0.215-0.018 0.12c-0.039 0.155-0.155 0.29-0.3 0.353-0.075 0.032-0.145 0.048-0.235 0.046l-0.448-0.004c-1.193-0.006-2.389-0.013-3.587-0.019-2.396-0.001-4.799-0.001-7.202-0.002-2.403 0.004-4.807 0.009-7.204 0.013h-1.347c-0.147-0.001-0.325 0.004-0.371-0.008-0.152-0.021-0.29-0.122-0.366-0.256l-0.063-0.219-0.002-0.418c0.005-1.194 0.009-2.386 0.014-3.575-0.001-0.2-0.006-1.913-0.014-4.202-0.009-1.145-0.019-2.434-0.029-3.751l-0.001-0.236 0.017-0.134 0.13-0.237 0.229-0.149c0.086-0.03 0.163-0.03 0.357-0.032 0.657-0.01 1.307-0.019 1.934-0.029 0.885-0.064 1.583-0.17 1.375-0.343"/>
      <path id="Fill-17" fill="#DCDEE4" d="m22.381 17.58c-0.165-0.138-0.57-0.21-1.032-0.247-0.716-0.056-1.56-0.038-1.895-0.046-1.521-0.041-2.794-0.006-4.308-0.066-1.506-0.059-3.076-0.071-4.559-0.057-0.724 0.018-1.719 0.043-2.442 0.062-0.371 0.01-1.441 0.039-2.138 0.058-0.262 0.002-0.441 0.004-0.575 0.006-0.713 0-0.976 0.526 0.079 0.526h0.496c0.803 0.003 2.427 0.008 2.623 0.009 1.825 0.047 3.217-0.066 5.027 0.036 1.8 0.101 3.642 0.004 5.443 0.047 0.076 0.002 1.298-0.006 2.249-0.071 0.664-0.047 1.187-0.127 1.032-0.257"/>
      <path id="Fill-18" fill="#DCDEE4" d="m22.381 20.23c-0.165-0.137-0.57-0.209-1.032-0.247-0.716-0.056-1.56-0.037-1.895-0.046-1.521-0.041-2.794-0.006-4.308-0.066-1.506-0.059-3.076-0.071-4.559-0.057-0.724 0.018-1.719 0.044-2.442 0.062-0.371 0.01-1.441 0.039-2.138 0.058-0.262 0.003-0.441 0.004-0.575 0.006-0.713 0-0.976 0.526 0.079 0.526 0.098 0 0.239 0 0.496 0.001 0.803 0.002 2.427 0.008 2.623 0.008 1.825 0.048 3.217-0.065 5.027 0.036 1.8 0.101 3.642 0.004 5.443 0.047 0.076 0.002 1.298-0.005 2.249-0.07 0.664-0.048 1.187-0.128 1.032-0.258"/>
      <path id="Fill-19" fill="#DCDEE4" d="m22.381 22.881c-0.165-0.138-0.57-0.21-1.032-0.248-0.716-0.055-1.56-0.037-1.895-0.046-1.521-0.041-2.794-0.006-4.308-0.065-1.506-0.059-3.076-0.071-4.559-0.058-0.724 0.018-1.719 0.044-2.442 0.062-0.371 0.01-1.441 0.039-2.138 0.058-0.262 0.003-0.441 0.005-0.575 0.006-0.713 0-0.976 0.526 0.079 0.526 0.098 0.001 0.239 0.001 0.496 0.001 0.803 0.002 2.427 0.008 2.623 0.009 1.825 0.047 3.217-0.066 5.027 0.035 1.8 0.101 3.642 0.004 5.443 0.048 0.076 0.001 1.298-0.006 2.249-0.071 0.664-0.048 1.187-0.127 1.032-0.257"/>
      <path id="Fill-20" fill="#DCDEE4" d="m22.381 25.531c-0.165-0.138-0.57-0.21-1.032-0.247-0.716-0.056-1.56-0.038-1.895-0.046-1.521-0.042-2.794-0.007-4.308-0.066-1.506-0.059-3.076-0.071-4.559-0.058-0.724 0.019-1.719 0.044-2.442 0.062-0.371 0.01-1.441 0.039-2.138 0.058-0.262 0.003-0.441 0.005-0.575 0.006-0.713 0-0.976 0.527 0.079 0.527h0.496c0.803 0.003 2.427 0.008 2.623 0.009 1.825 0.047 3.217-0.066 5.027 0.035 1.8 0.102 3.642 0.004 5.443 0.048 0.076 0.001 1.298-0.006 2.249-0.071 0.664-0.048 1.187-0.127 1.032-0.257"/>
      
      
     </g>
    </g>
   </g>
  </g>
 </g>
</svg>