<?xml version="1.0" encoding="UTF-8" standalone="no"?>
<svg xmlns:sketch="http://www.bohemiancoding.com/sketch/ns" xmlns="http://www.w3.org/2000/svg" xmlns:xlink="http://www.w3.org/1999/xlink" height="400px" width="550px" version="1.1" viewBox="0 0 36 32"><script/><!-- Generator: Sketch 3.2.2 (9983) - http://www.bohemiancoding.com/sketch -->
 <title>Imported Layers</title>
 <desc>Created with Sketch.</desc>
 <g id="Page-1" fill-rule="evenodd" sketch:type="MSPage" fill="none">
  <g id="Pricing-Spec" transform="translate(-664 -467)" sketch:type="MSArtboardGroup">
   <g id="Pricing-Module" transform="translate(145 284)" sketch:type="MSLayerGroup">
    <g id="Column-2" sketch:type="MSShapeGroup" transform="translate(510.5 183)">
     <g id="Imported-Layers" transform="translate(8)">
      <path id="Fill-1" fill="#DCDEE4" d="m36.45 30.44c0 0.552-8.623 1-17.972 1-9.35 0-17.973-0.448-17.973-1s8.623-1 17.973-1c9.349 0 17.972 0.448 17.972 1"/>
      <path id="Fill-2" fill="#fff" d="m34.48 3.787v-1.928c0-0.552-0.447-0.999-0.999-0.999h-29.962c-0.552 0-1 0.447-1 0.999v27.718c0 0.276 0.224 0.5 0.5 0.5h30.962c0.276 0 0.499-0.224 0.499-0.5v-23.991c0-0.394-0.321-0.712-0.715-0.707h-28.936"/>
      <path id="Fill-3" fill="#DCDEE4" d="m33.481 0.86h-29.962c-0.552 0-1 0.447-1 0.999v1.001c0-0.552 0.448-1 1-1h29.962c0.552 0 0.999 0.448 0.999 1v-1.001c0-0.552-0.447-0.999-0.999-0.999"/>
      <path id="Fill-4" fill="#8C8C8C" d="m4.865 4.817c0.219 0.183 0.76 0.279 1.376 0.329 6.83 0.074 14.877 0.05 18.069 0.062 1.814 0.006 3.591 0.011 5.341 0.016 0.874 0.002 1.742 0.004 2.604 0.006l1.288 0.002c0.259-0.002 0.328-0.005 0.423 0.058 0.089 0.06 0.15 0.159 0.158 0.265-0.003 3.394-0.005 6.713-0.007 10.029-0.005 3.327-0.009 6.651-0.014 10.046-0.002 0.849-0.004 1.702-0.006 2.561l-0.004 1.292c-0.032 0.265 0.046 0.186-0.535 0.202-1.742-0.008-3.511-0.016-5.315-0.024-7.181-0.025-14.514-0.05-21.82-0.075l-2.739-0.004-0.665-0.001-0.003-0.003 0.001-1.284c0.001-1.821 0.002-3.636 0.002-5.445-0.002-3.617-0.004-7.205-0.006-10.741-0.004-1.728-0.008-3.617-0.012-5.586-0.003-0.985-0.006-1.99-0.009-3.004-0.002-0.508-0.003-1.018-0.005-1.529-0.007-0.257 0.019-0.31 0.103-0.447 0.081-0.112 0.206-0.19 0.341-0.212 4.071-0.021 8.139-0.042 11.562-0.06 2.268-0.009 7.298-0.03 12.522-0.051 1.305-0.005 2.623-0.009 3.913-0.013 0.645-0.002 1.283-0.004 1.909-0.006 0.525-0.045 0.842 0.292 0.808 0.782 0.004 0.386 0.008 0.727 0.01 0.972 0 0.95 0.702 1.301 0.702-0.106v-0.381-0.248-0.292c0.008-0.183-0.029-0.462-0.138-0.668-0.205-0.436-0.668-0.757-1.174-0.774-2.923-0.001-6.289-0.003-9.54-0.005-6.49-0.004-12.522-0.008-13.643-0.009-2.175-0.005-4.285-0.01-6.347-0.015-0.261 0.016-0.482-0.042-0.877 0.053-0.348 0.097-0.65 0.333-0.83 0.642-0.197 0.292-0.204 0.74-0.193 0.942v0.758c0 1.009 0 2.008 0.001 2.998 0.006 3.961 0.012 7.791 0.018 11.617 0.002 3.826 0.003 7.648 0.005 11.592l-0.001 0.37 0.003 0.213c0.008 0.109 0.036 0.216 0.083 0.315 0.093 0.197 0.262 0.358 0.466 0.439 0.101 0.041 0.21 0.064 0.32 0.065h0.19c0.498 0.002 0.997 0.003 1.499 0.004 1.003 0.004 2.016 0.007 3.041 0.011 2.049 0.012 4.145 0.025 6.303 0.038 4.291 0.02 8.607 0.039 12.936 0.059 2.165 0.001 4.333 0.003 6.502 0.005l0.517-0.001c0.068-0.001 0.136-0.009 0.202-0.024 0.132-0.029 0.258-0.086 0.368-0.166 0.22-0.159 0.37-0.411 0.404-0.681 0.015-0.166 0.006-0.189 0.008-0.267l-0.003-5.088c-0.004-4.343-0.009-8.685-0.013-13.016v-3.246l0.001-2.431c0.039-0.357-0.193-0.899-0.593-1.102-0.187-0.116-0.448-0.17-0.634-0.162l-0.404-0.001-0.809-0.001-1.616-0.003-3.225-0.008c-0.724 0.003-12.376 0.054-21.443 0.094-0.885 0.064-1.583 0.169-1.376 0.343"/>
      <path id="Fill-5" fill="#505A78" d="m24.128 10.589c-0.336-0.184-1.166-0.279-2.112-0.33-2.125-0.074-8.016-0.059-8.289-0.057-1.459 0-1.999 0.701 0.162 0.701 0.2 0 5.306 0.116 8.127 0.029 1.358-0.064 2.43-0.17 2.112-0.343"/>
      <path id="Fill-6" fill="#FFE447" d="m10.073 10.582c0 0.828-0.672 1.5-1.5 1.5-0.829 0-1.5-0.672-1.5-1.5 0-0.829 0.671-1.5 1.5-1.5 0.828 0 1.5 0.671 1.5 1.5"/>
      <path id="Fill-7" fill="#CAAC00" d="m10.294 10.354c-0.008-0.114-0.036-0.227-0.047-0.294-0.079-0.381-0.303-0.711-0.423-0.824-0.24-0.25-0.535-0.442-0.863-0.517-0.338-0.069-0.688-0.065-1.021 0.047-0.328 0.108-0.565 0.375-0.803 0.622-0.18 0.188-0.405 0.391-0.493 0.672-0.086 0.281 0.008 0.574 0.047 0.838 0.04 0.273 0.163 0.527 0.314 0.749 0.154 0.223 0.311 0.44 0.549 0.584 0.228 0.138 0.559 0.213 0.862 0.219 0.302 0.012 0.608-0.037 0.838-0.147 0.156-0.066 0.519-0.247 0.751-0.574 0.123-0.161 0.2-0.377 0.229-0.536 0.079-0.26 0.079-0.454 0.076-0.611h-0.533c-0.011 0.082-0.003 0.198-0.08 0.413-0.035 0.102-0.132 0.297-0.272 0.434-0.237 0.248-0.571 0.314-0.623 0.318-0.196 0.022-0.383 0.014-0.556-0.033-0.187-0.048-0.329-0.176-0.464-0.292-0.136-0.117-0.262-0.262-0.321-0.444-0.056-0.173-0.019-0.366 0.037-0.538 0.053-0.175 0.089-0.361 0.211-0.509 0.117-0.147 0.288-0.23 0.446-0.306 0.156-0.073 0.333-0.187 0.533-0.173 0.204 0.024 0.331 0.218 0.46 0.313 0.064 0.047 0.213 0.08 0.361 0.283 0.044 0.063 0.099 0.124 0.156 0.193 0.052 0.105 0.092 0.22 0.112 0.341h0.533c0-0.078-0.006-0.158-0.016-0.228"/>
      <path id="Fill-8" fill="#FFE447" d="m10.073 17.58c0 0.829-0.672 1.5-1.5 1.5-0.829 0-1.5-0.671-1.5-1.5 0-0.828 0.671-1.5 1.5-1.5 0.828 0 1.5 0.672 1.5 1.5"/>
      <path id="Fill-9" fill="#CAAC00" d="m10.294 17.352c-0.008-0.113-0.036-0.227-0.047-0.293-0.079-0.381-0.303-0.712-0.423-0.825-0.24-0.249-0.535-0.441-0.863-0.517-0.338-0.068-0.688-0.065-1.021 0.048-0.328 0.107-0.565 0.374-0.803 0.622-0.18 0.187-0.405 0.39-0.493 0.671-0.086 0.282 0.008 0.574 0.047 0.838 0.04 0.274 0.163 0.527 0.314 0.749 0.154 0.223 0.311 0.441 0.549 0.584 0.228 0.138 0.559 0.214 0.862 0.219 0.302 0.012 0.608-0.037 0.838-0.146 0.156-0.066 0.519-0.248 0.751-0.574 0.123-0.161 0.2-0.378 0.229-0.537 0.079-0.259 0.079-0.454 0.076-0.611h-0.533c-0.011 0.083-0.003 0.199-0.08 0.414-0.035 0.102-0.132 0.296-0.272 0.434-0.237 0.247-0.571 0.314-0.623 0.317-0.196 0.022-0.383 0.014-0.556-0.032-0.187-0.049-0.329-0.177-0.464-0.293-0.136-0.116-0.262-0.261-0.321-0.444-0.056-0.172-0.019-0.366 0.037-0.538 0.053-0.175 0.089-0.361 0.211-0.508 0.117-0.148 0.288-0.23 0.446-0.306 0.156-0.073 0.333-0.188 0.533-0.173 0.204 0.024 0.331 0.217 0.46 0.313 0.064 0.046 0.213 0.08 0.361 0.282 0.044 0.063 0.099 0.124 0.156 0.194 0.052 0.105 0.092 0.22 0.112 0.34h0.533c0-0.078-0.006-0.157-0.016-0.228"/>
      <path id="Fill-10" fill="#FFE447" d="m10.073 24.579c0 0.828-0.672 1.5-1.5 1.5-0.829 0-1.5-0.672-1.5-1.5 0-0.829 0.671-1.5 1.5-1.5 0.828 0 1.5 0.671 1.5 1.5"/>
      <path id="Fill-11" fill="#CAAC00" d="m10.294 24.351c-0.008-0.114-0.036-0.227-0.047-0.294-0.079-0.381-0.303-0.711-0.423-0.824-0.24-0.25-0.535-0.442-0.863-0.517-0.338-0.069-0.688-0.065-1.021 0.047-0.328 0.108-0.565 0.375-0.803 0.622-0.18 0.188-0.405 0.391-0.493 0.672-0.086 0.281 0.008 0.574 0.047 0.838 0.04 0.273 0.163 0.526 0.314 0.748 0.154 0.224 0.311 0.441 0.549 0.585 0.228 0.138 0.559 0.213 0.862 0.218 0.302 0.012 0.608-0.037 0.838-0.146 0.156-0.066 0.519-0.247 0.751-0.574 0.123-0.161 0.2-0.377 0.229-0.536 0.079-0.26 0.079-0.454 0.076-0.611h-0.533c-0.011 0.082-0.003 0.198-0.08 0.413-0.035 0.102-0.132 0.296-0.272 0.434-0.237 0.248-0.571 0.314-0.623 0.318-0.196 0.022-0.383 0.013-0.556-0.033-0.187-0.048-0.329-0.177-0.464-0.292-0.136-0.117-0.262-0.262-0.321-0.444-0.056-0.173-0.019-0.366 0.037-0.539 0.053-0.175 0.089-0.36 0.211-0.508 0.117-0.147 0.288-0.23 0.446-0.306 0.156-0.073 0.333-0.187 0.533-0.173 0.204 0.024 0.331 0.218 0.46 0.313 0.064 0.047 0.213 0.08 0.361 0.283 0.044 0.062 0.099 0.124 0.156 0.193 0.052 0.105 0.092 0.22 0.112 0.341h0.533c0-0.078-0.006-0.158-0.016-0.228"/>
      <path id="Fill-12" fill="#505A78" d="m25.208 10.575c0.136 0.183 0.471 0.279 0.853 0.329 0.859 0.074 3.239 0.06 3.349 0.058 0.589 0 0.808-0.702-0.065-0.702-0.081 0-2.144-0.115-3.284-0.028-0.549 0.064-0.982 0.169-0.853 0.343"/>
      <path id="Fill-13" fill="#505A78" d="m24.128 17.587c-0.336-0.183-1.166-0.279-2.112-0.329-2.125-0.074-8.016-0.06-8.289-0.058-1.459 0-1.999 0.702 0.162 0.702 0.2 0 5.306 0.115 8.127 0.028 1.358-0.064 2.43-0.169 2.112-0.343"/>
      <path id="Fill-14" fill="#505A78" d="m25.208 17.573c0.136 0.184 0.471 0.279 0.853 0.33 0.859 0.074 3.239 0.059 3.349 0.057 0.589 0 0.808-0.701-0.065-0.701-0.081 0-2.144-0.116-3.284-0.029-0.549 0.064-0.982 0.17-0.853 0.343"/>
      <path id="Fill-15" fill="#505A78" d="m24.128 24.586c-0.336-0.184-1.166-0.28-2.112-0.33-2.125-0.074-8.016-0.059-8.289-0.057-1.459 0-1.999 0.701 0.162 0.701 0.2 0 5.306 0.115 8.127 0.029 1.358-0.064 2.43-0.17 2.112-0.343"/>
      <path id="Fill-16" fill="#505A78" d="m25.208 24.572c0.136 0.183 0.471 0.279 0.853 0.329 0.859 0.074 3.239 0.06 3.349 0.058 0.589 0 0.808-0.702-0.065-0.702-0.081 0-2.144-0.115-3.284-0.029-0.549 0.064-0.982 0.17-0.853 0.344"/>
     </g>
    </g>
   </g>
  </g>
 </g>
</svg>