<?xml version="1.0" encoding="UTF-8" standalone="no"?>
<svg xmlns="http://www.w3.org/2000/svg" xmlns:xlink="http://www.w3.org/1999/xlink" id="Layer_1" xml:space="preserve" viewBox="0 0 50 50" version="1.1" y="0px" x="0px" enable-background="new 0 0 50 50"><script></script>
	<ellipse cy="38.24" cx="25" rx="21.51" ry="1.52" fill="#DCDEE4"></ellipse>
		<path d="m24.61 14.44v-3.21c0-0.55-0.45-1-1-1h-16.27c-0.55 0-1 0.45-1 1v26.01c0 0.55 0.45 1 1 1h35.32c0.55 0 1-0.45 1-1v-20.8c0-0.55-0.45-1-1-1h-34.43" fill="#fff"></path>
	<rect y="14.05" x="6.34" height="1.44" width="18.27" fill="#DCDEE4"></rect>
	<path d="m8.27 15.38c0.22 0.18 0.76 0.28 1.38 0.33 6.58 0.07 14.32 0.05 17.39 0.06 3.49 0.01 6.84 0.02 10.12 0.03 1.64 0 3.26 0 4.87 0.01h0.6c0.14 0 0.26 0.04 0.37 0.11s0.19 0.18 0.24 0.29c0.05 0.12 0.05 0.22 0.05 0.46v2.4c0 3.2-0.01 6.4-0.01 9.67 0 1.63-0.01 3.29-0.02 4.96 0 0.84-0.01 1.68-0.01 2.54v0.64 0.32c0 0.1 0 0.14-0.02 0.21-0.07 0.25-0.32 0.43-0.57 0.42-6.91-0.02-13.97-0.05-21.01-0.07-3.52 0-7.03-0.01-10.51-0.01h-2.61-1.24c-0.21-0.02-0.41-0.2-0.44-0.41 0-1.7-0.01-3.38-0.01-5.06-0.01-3.33-0.02-7.27-0.03-11.22-0.01-1.97-0.02-3.94-0.02-5.84 0-0.95-0.01-1.87-0.01-2.77v-1.27c0.02-0.25 0.23-0.47 0.47-0.51 2.17-0.01 6.98-0.04 11.98-0.06 1.26 0 2.53-0.01 3.77-0.01 0.3 0.01 0.67-0.03 0.82 0.03 0.19 0.06 0.36 0.21 0.42 0.4 0.07 0.15 0.03 0.47 0.04 0.77v0.87c0 0.38 0.01 0.72 0.01 0.96 0 0.95 0.7 1.3 0.7-0.11 0-0.54-0.01-1.44-0.02-2.51-0.08-0.48-0.44-0.91-0.91-1.07-0.24-0.09-0.51-0.07-0.66-0.07h-0.56-2.29-4.7-8.51c-0.86-0.02-1.45 0.84-1.37 1.47v1.35 1.63c-0.01 4.19-0.01 8.13-0.02 11.94 0 1.91 0.01 3.78 0.01 5.64 0 0.93 0 1.85 0.01 2.78v1.38 0.69c0.01 0.26-0.02 0.4 0.03 0.76 0.11 0.64 0.71 1.14 1.36 1.13h1.38 2.77 5.62c3.8 0.02 7.71 0.04 11.87 0.06 4.13 0.02 8.29 0.04 12.45 0.06h0.78 0.39c0.15 0 0.38-0.02 0.55-0.09 0.37-0.13 0.68-0.41 0.85-0.76 0.08-0.18 0.13-0.37 0.14-0.57v-0.42-3.13-6.27l-0.01-6.27v-3.13-1.57c0.03-0.3-0.09-0.76-0.34-1.04-0.24-0.3-0.61-0.49-1-0.53-4.19-0.01-8.36-0.02-12.51-0.02-0.7 0-11.92 0.05-20.65 0.09-0.89 0.05-1.59 0.16-1.38 0.33z" fill="#8C8C8C"></path>
				<path d="m22.09 30.2c0-2.74-2.42-4.94-5.23-4.57-2.32 0.31-3.99 2.4-3.99 4.74v0.83c0 0.44 0.36 0.8 0.8 0.8h7.63c0.44 0 0.8-0.36 0.8-0.8v-1z" fill="#EAC901"></path>
				<path d="m21.87 30.8v0.41c0 0.1-0.03 0.19-0.07 0.27-0.09 0.16-0.25 0.26-0.41 0.29-0.39 0.01-0.85 0-1.21 0-0.74-0.01-1.31-0.01-1.77-0.02-0.92-0.02-1.4-0.02-1.89-0.03s-0.99-0.01-1.96-0.03h-0.82c-0.23 0.01-0.42-0.09-0.51-0.32-0.02-0.06-0.03-0.1-0.03-0.19v-0.32c0-0.21-0.01-0.46 0.01-0.67 0.02-0.45 0.1-0.95 0.3-1.46 0.41-1.06 1.12-1.82 1.9-2.27s1.62-0.6 2.42-0.55c1.57 0.13 3.08 1.07 3.76 2.85 0.23 0.6 0.27 1.08 0.29 1.46h0.53c-0.03-0.33 0.02-0.79-0.29-1.66-0.37-1-1.07-1.93-2.03-2.52-0.95-0.61-2.14-0.87-3.3-0.71-1.16 0.15-2.27 0.78-3.02 1.69-0.76 0.91-1.2 2.1-1.21 3.29v0.54c0.01 0.19-0.02 0.33 0.03 0.6 0.1 0.49 0.57 0.86 1.07 0.86h2.09c1.36 0 2.65 0 3.76 0.01h1.54c0.19 0.01 0.56 0.01 0.8-0.15 0.25-0.14 0.42-0.37 0.49-0.6 0.04-0.12 0.06-0.23 0.06-0.34v-0.23-0.37-0.41h-0.53v0.58z" fill="#CAAC00"></path>
				<circle cy="22" cx="17.48" r="2.12" fill="#fff"></circle>
				<path d="m15.17 22.32c0.08 0.63 0.38 1.07 0.67 1.36s0.58 0.44 0.82 0.54c0.49 0.18 0.77 0.18 1.04 0.17 0.27-0.03 0.58-0.05 1.06-0.33 0.24-0.15 0.52-0.36 0.76-0.74 0.24-0.37 0.45-0.92 0.38-1.6-0.21-1.42-1.36-2.1-2.29-2.12-0.96-0.04-1.92 0.48-2.34 1.53-0.12 0.36-0.13 0.64-0.13 0.87h0.53c0.01-0.13 0-0.32 0.13-0.66 0.29-0.81 1.29-1.36 2.2-1.06 0.91 0.25 1.51 1.31 1.21 2.25-0.17 0.59-0.67 1.07-1.24 1.22-0.57 0.16-1.15 0.01-1.54-0.27-0.8-0.6-0.74-1.42-0.76-1.47h-0.53c0-0.01 0.02 0.31 0.03 0.31z" fill="#CAAC00"></path>
				<path d="m28 30.2c0-2.74 2.42-4.94 5.23-4.57 2.32 0.31 3.99 2.4 3.99 4.74v0.83c0 0.44-0.36 0.8-0.8 0.8h-7.62c-0.44 0-0.8-0.36-0.8-0.8v-1z" fill="#FFE447"></path>
				<path d="m27.78 30.8v0.42c0 0.17 0.05 0.34 0.12 0.49 0.16 0.29 0.45 0.48 0.74 0.52 0.53 0.03 0.89 0.01 1.28 0.02 0.74 0.01 1.31 0.01 1.77 0.02 0.92 0.02 1.4 0.02 1.89 0.03s0.99 0.01 1.96 0.03h0.82c0.38 0.04 0.94-0.21 1.12-0.74 0.05-0.12 0.07-0.28 0.07-0.4v-0.32c0-0.22 0.01-0.44-0.01-0.7-0.02-0.51-0.12-1.08-0.35-1.67-0.47-1.2-1.3-2.06-2.19-2.57-0.91-0.51-1.87-0.67-2.77-0.6-1.78 0.17-3.46 1.26-4.2 3.25-0.23 0.69-0.24 1.21-0.25 1.64h0.53c0.03-0.28-0.01-0.69 0.26-1.44 0.6-1.78 2.6-3.13 4.65-2.8 2.04 0.24 3.69 2.24 3.7 4.35l0.01 0.53c0 0.17 0.01 0.39-0.01 0.47-0.04 0.22-0.25 0.39-0.48 0.39h-2.09c-1.36 0-2.65 0-3.76-0.01h-1.54c-0.27 0-0.36 0-0.48-0.07-0.11-0.06-0.18-0.16-0.21-0.26-0.02-0.05-0.02-0.1-0.02-0.15v-0.22-0.37-0.41h-0.53v0.57z" fill="#CAAC00"></path>
				<circle cy="22" cx="32.61" r="2.12" fill="#fff"></circle>
				<path d="m34.49 22.26c-0.19 1.03-0.88 1.35-1.23 1.48-0.39 0.12-0.61 0.1-0.81 0.07-0.2-0.04-0.43-0.07-0.78-0.29-0.31-0.21-0.9-0.7-0.83-1.73 0.13-1.04 0.97-1.58 1.68-1.62 0.72-0.05 1.49 0.33 1.83 1.14 0.12 0.28 0.15 0.5 0.16 0.68h0.53c-0.01-0.18 0-0.42-0.16-0.89-0.39-1.09-1.74-1.84-2.97-1.45-0.6 0.18-1.14 0.61-1.44 1.17-0.31 0.57-0.37 1.26-0.18 1.87 0.25 0.79 0.92 1.42 1.67 1.62 0.76 0.21 1.54 0.02 2.05-0.35 0.53-0.37 0.8-0.88 0.92-1.26 0.12-0.39 0.1-0.65 0.1-0.71h-0.53c0.01 0.01-0.01 0.27-0.01 0.27z" fill="#CAAC00"></path>
				<path d="m29.66 31.13c0-2.74-2.42-4.94-5.23-4.57-2.32 0.31-3.99 2.4-3.99 4.74v1.7c0 0.44 0.36 0.8 0.8 0.8h7.63c0.44 0 0.8-0.36 0.8-0.8v-1.87z" fill="#FFDA00"></path>
				<path d="m29.44 31.76v0.86 0.39c0 0.09-0.03 0.18-0.07 0.26-0.09 0.15-0.24 0.25-0.39 0.28-0.13 0.02-0.4 0-0.58 0.01-0.79-0.01-1.4-0.01-1.89-0.02-0.98-0.02-1.49-0.02-2.01-0.03s-1.06-0.01-2.09-0.03h-0.88-0.25c-0.08 0-0.11 0-0.17-0.02-0.1-0.03-0.21-0.11-0.27-0.21-0.12-0.14-0.04-0.71-0.07-1.2 0.01-0.53-0.03-1.07 0.09-1.64 0.24-1.18 0.88-2.11 1.63-2.7 0.76-0.61 1.63-0.87 2.48-0.9 1.68-0.03 3.38 0.9 4.15 2.77 0.26 0.64 0.3 1.14 0.33 1.55h0.53c-0.03-0.35 0.01-0.84-0.33-1.76-0.4-1.07-1.22-2.01-2.27-2.58-1.05-0.59-2.35-0.74-3.56-0.43s-2.28 1.14-2.93 2.22c-0.33 0.54-0.56 1.14-0.67 1.77-0.13 0.64-0.08 1.26-0.08 1.85v0.57 0.3c0.01 0.13 0.04 0.26 0.09 0.38 0.11 0.24 0.3 0.44 0.54 0.55 0.24 0.12 0.53 0.1 0.69 0.1h2.23c1.45 0 2.82 0 4.01 0.01h0.86c0.15 0 0.24 0.01 0.44-0.01 0.18-0.02 0.35-0.09 0.49-0.18 0.29-0.19 0.46-0.51 0.48-0.81 0.01-0.28 0-0.44 0.01-0.64v-1.34h-0.53v0.63z" fill="#CAAC00"></path>
				<circle cy="22.92" cx="25.05" r="2.12" fill="#fff"></circle>
				<path d="m22.73 23.25c0.08 0.63 0.38 1.07 0.67 1.36s0.58 0.44 0.82 0.54c0.49 0.18 0.77 0.18 1.04 0.17 0.27-0.03 0.58-0.05 1.06-0.33 0.24-0.15 0.52-0.36 0.76-0.74 0.24-0.37 0.45-0.92 0.38-1.6-0.21-1.42-1.36-2.1-2.29-2.12-0.96-0.04-1.92 0.48-2.34 1.53-0.12 0.36-0.13 0.64-0.13 0.87h0.53c0.01-0.13 0-0.32 0.13-0.66 0.29-0.81 1.29-1.36 2.2-1.06 0.91 0.25 1.51 1.31 1.21 2.25-0.17 0.59-0.67 1.07-1.24 1.22-0.57 0.16-1.15 0.01-1.54-0.27-0.8-0.6-0.74-1.42-0.76-1.47h-0.53c0.01-0.02 0.02 0.31 0.03 0.31z" fill="#CAAC00"></path>
</svg>